<svg width="242" height="186" viewBox="0 0 242 186" fill="none" xmlns="http://www.w3.org/2000/svg">
<path d="M1.9433 0.240091C0.728738 0.821207 0 3.18718 0 6.79839C0 10.9077 0.728738 12.568 2.91495 13.1076C3.82588 13.3567 7.16593 13.7303 10.3238 13.9793C42.7526 16.4698 71.72 32.7826 81.558 54.0763C85.0195 61.6308 85.1409 62.2119 85.6267 83.5471C86.1126 104.592 86.4769 107.539 89.5133 115.716C94.5538 129.497 107.367 143.402 123.46 152.617C138.4 161.126 156.8 166.979 174.594 168.847C182.306 169.635 181.456 168.597 181.699 177.19C181.881 184.122 182.002 184.744 183.095 185.284C183.763 185.657 185.16 185.865 186.132 185.782C188.561 185.616 240.362 165.194 241.516 163.949C242.913 162.537 241.516 161.458 234.289 158.594C213.095 150.126 187.346 140.164 186.193 139.957C185.342 139.832 184.31 140.04 183.338 140.538C181.942 141.368 181.881 141.534 181.699 148.507L181.456 155.605L178.966 155.356C147.691 152.077 120.849 136.553 110.829 116.007C106.821 107.663 106.76 107.497 106.274 85.2074C105.91 66.7778 105.728 64.3703 104.452 59.6799C96.8007 30.4166 64.3111 7.42101 21.8014 1.15327C15.5464 0.198583 3.15787 -0.341024 1.9433 0.240091Z" fill="white"/>
</svg>
