<?xml version="1.0" standalone="no"?>
<!DOCTYPE svg PUBLIC "-//W3C//DTD SVG 20010904//EN"
 "http://www.w3.org/TR/2001/REC-SVG-20010904/DTD/svg10.dtd">
<svg version="1.0" xmlns="http://www.w3.org/2000/svg"
 width="399.000000pt" height="448.000000pt" viewBox="0 0 399.000000 448.000000"
 preserveAspectRatio="xMidYMid meet">

<g transform="translate(0.000000,448.000000) scale(0.100000,-0.100000)"
fill="#000000" stroke="none">
<path d="M32 4472 c-20 -14 -32 -71 -32 -158 0 -99 12 -139 48 -152 15 -6 70
-15 122 -21 534 -60 1011 -453 1173 -966 57 -182 59 -196 67 -710 8 -507 14
-578 64 -775 83 -332 294 -667 559 -889 246 -205 549 -346 842 -391 127 -19
113 6 117 -201 3 -167 5 -182 23 -195 11 -9 34 -14 50 -12 40 4 893 496 912
526 23 34 0 60 -119 129 -349 204 -773 444 -792 449 -14 3 -31 -2 -47 -14 -23
-20 -24 -24 -27 -192 l-4 -171 -41 6 c-515 79 -957 453 -1122 948 -66 201 -67
205 -75 742 -6 444 -9 502 -30 615 -126 705 -661 1259 -1361 1410 -103 23
-307 36 -327 22z"/>
</g>
</svg>
