<?xml version="1.0" standalone="no"?>
<!DOCTYPE svg PUBLIC "-//W3C//DTD SVG 20010904//EN"
 "http://www.w3.org/TR/2001/REC-SVG-20010904/DTD/svg10.dtd">
<svg version="1.0" xmlns="http://www.w3.org/2000/svg"
 width="399.000000pt" height="448.000000pt" viewBox="0 0 399.000000 448.000000"
 preserveAspectRatio="xMidYMid meet">

<g transform="translate(0.000000,448.000000) scale(0.100000,-0.100000)"
fill="#000000" stroke="none">
<path d="M3015 4466 c-18 -13 -20 -28 -23 -195 -4 -207 10 -182 -117 -201
-293 -45 -596 -186 -842 -391 -265 -222 -476 -557 -559 -889 -50 -197 -56
-268 -64 -775 -8 -514 -10 -528 -67 -710 -162 -513 -639 -906 -1173 -966 -122
-14 -146 -23 -159 -61 -14 -39 -14 -182 0 -230 13 -48 31 -53 158 -45 120 8
254 37 390 83 606 206 1048 721 1161 1354 21 113 24 171 30 615 8 537 9 541
75 742 165 495 607 869 1122 948 l41 6 4 -171 c3 -168 4 -172 27 -192 16 -12
33 -17 47 -14 19 5 443 245 792 449 119 69 142 95 119 130 -19 29 -872 521
-912 525 -16 2 -39 -3 -50 -12z"/>
</g>
</svg>
