<svg width="242" height="186" viewBox="0 0 242 186" fill="none" xmlns="http://www.w3.org/2000/svg">
<path d="M183.088 0.515551C181.995 1.05488 181.873 1.67718 181.691 8.60547C181.448 17.1932 182.299 16.1561 174.585 16.9443C156.789 18.8112 138.387 24.6609 123.446 33.1656C107.351 42.3757 94.5353 56.2738 89.4942 70.0474C86.4574 78.2203 86.093 81.1658 85.6071 102.2C85.1212 123.524 84.9998 124.105 81.5378 131.655C71.6986 152.938 42.7276 169.242 10.2947 171.731C2.88495 172.312 1.42729 172.686 0.637726 174.262C-0.212575 175.88 -0.212575 181.813 0.637726 183.804C1.42729 185.795 2.52054 186.003 10.234 185.671C17.5223 185.339 25.6609 184.136 33.9209 182.228C70.7268 173.681 97.5721 152.316 104.435 126.055C105.711 121.367 105.893 118.96 106.257 100.54C106.743 78.2618 106.804 78.0958 110.812 69.757C120.834 49.221 147.679 33.705 178.958 30.4275L181.448 30.1786L181.691 37.2728C181.873 44.2426 181.934 44.4086 183.331 45.2383C184.303 45.7361 185.335 45.9436 186.186 45.8191C187.34 45.6117 213.092 35.6549 234.288 27.1916C241.516 24.329 242.913 23.2503 241.516 21.7983C240.362 20.5952 188.554 0.183656 186.125 0.0177093C185.153 -0.0652642 183.756 0.14217 183.088 0.515551Z" fill="white"/>
</svg>