<?xml version="1.0" standalone="no"?>
<!DOCTYPE svg PUBLIC "-//W3C//DTD SVG 20010904//EN"
 "http://www.w3.org/TR/2001/REC-SVG-20010904/DTD/svg10.dtd">
<svg version="1.0" xmlns="http://www.w3.org/2000/svg"
 width="256.000000pt" height="256.000000pt" viewBox="0 0 256.000000 256.000000"
 preserveAspectRatio="xMidYMid meet">

<g transform="translate(0.000000,256.000000) scale(0.100000,-0.100000)"
fill="#000000" stroke="none">
<path d="M432 2508 c-42 -63 -392 -625 -392 -630 0 -3 24 -20 53 -38 28 -18
66 -41 82 -52 17 -10 73 -45 125 -77 l94 -59 42 67 c136 214 384 614 382 615
-2 1 -80 50 -174 109 -94 59 -174 107 -177 107 -3 0 -19 -19 -35 -42z m-56
-550 c13 -41 -38 -80 -75 -56 -38 23 -31 71 12 87 25 9 55 -5 63 -31z"/>
<path d="M679 1974 c-82 -123 -149 -225 -149 -227 0 -3 21 -12 47 -22 33 -13
78 -48 152 -120 58 -56 140 -124 182 -153 42 -28 98 -69 124 -92 26 -22 70
-52 98 -67 150 -75 352 -197 399 -241 l28 -26 -58 -36 c-31 -20 -81 -63 -110
-95 -198 -217 -186 -537 29 -739 219 -207 560 -206 780 1 213 201 224 522 27
738 -69 76 -137 118 -250 156 -51 17 -94 32 -95 33 -1 0 3 21 8 46 6 32 39
366 39 397 0 18 45 -20 165 -137 142 -139 144 -140 189 -140 45 0 46 1 46 33
0 25 -14 48 -60 102 -33 39 -88 111 -122 160 -34 50 -117 146 -183 215 -67 69
-141 151 -164 183 -56 77 -90 97 -166 97 -61 1 -245 34 -485 88 -74 16 -177
39 -228 50 l-94 19 -149 -223z m974 -444 c47 -20 47 -21 47 -68 0 -29 8 -59
20 -80 17 -28 21 -53 23 -170 2 -115 0 -137 -13 -139 -10 -3 -21 13 -32 45
-21 58 -107 139 -265 252 -24 17 -43 37 -43 45 0 34 43 96 91 133 l51 39 37
-18 c20 -11 57 -28 84 -39z m210 -744 c3 -7 2 -31 -3 -52 -5 -21 -7 -40 -5
-42 2 -2 22 10 46 27 23 17 48 31 56 31 28 0 10 -36 -34 -67 l-46 -31 57 -12
c58 -12 75 -25 57 -43 -7 -7 -27 -7 -66 0 -30 5 -55 8 -55 7 0 -2 14 -23 30
-47 17 -25 30 -50 30 -56 0 -20 -39 -11 -51 12 -7 12 -20 32 -30 45 l-17 22
-10 -47 c-6 -27 -13 -69 -17 -94 -7 -44 -6 -47 19 -53 17 -4 26 -13 26 -27 0
-17 -5 -20 -32 -17 -26 2 -33 -1 -36 -17 -6 -30 -19 -40 -35 -27 -8 7 -12 23
-9 37 4 21 1 25 -20 25 -31 0 -37 6 -30 32 4 16 10 19 33 14 26 -5 28 -3 38
44 18 83 24 130 17 130 -4 0 -24 -11 -44 -25 -43 -29 -62 -32 -62 -7 0 9 20
30 47 47 45 28 46 30 22 36 -13 4 -36 7 -50 8 -33 1 -57 27 -41 43 8 8 26 8
64 0 29 -5 54 -9 55 -8 1 1 -11 21 -28 45 -33 50 -37 71 -11 71 9 -1 30 -22
47 -48 l30 -47 9 45 c11 55 37 79 49 46z"/>
</g>
</svg>
