<svg id="Layer_1" data-name="Layer 1" xmlns="http://www.w3.org/2000/svg" viewBox="0 0 590.17 552.74"><path d="M106.17,594.39A247.29,247.29,0,0,1,62.9,546C34.07,503.9,17.05,457.56,12.7,406.67c-10.06-117.4,48.53-236.61,167-294.51,3-1.49,6-3.19,9.72-3,5,.24,9.12,2.76,10.85,7.2A11.55,11.55,0,0,1,197,129.4a20.47,20.47,0,0,1-5.44,3.08C103,172.38,47.23,239.76,28,334.8,8.08,433,34.9,518.79,103.59,591.58,104.46,592.51,105.31,593.45,106.17,594.39Z" transform="translate(-11.59 -109.14)"/><path d="M509,178.59c1.73-.24,2.16.69,2.75,1.26,50.86,49.15,81,108.67,88.29,179.15,13.19,126.85-51.81,244-165.88,300-3.94,1.93-7.87,3.39-12.45,2.61-4.89-.84-7.8-3.55-8.93-8.22a11.08,11.08,0,0,1,4.67-12.17,62,62,0,0,1,7.24-3.51c94.42-43.89,149.59-118,164-220.4,12.74-90.47-14.51-169.53-77.28-236.14C510.75,180.47,510.05,179.7,509,178.59Z" transform="translate(-11.59 -109.14)"/><path d="M205.26,625.64a216.35,216.35,0,0,1-46.71-23.48C94.92,559.82,56.17,500.83,43.49,425.61,28.72,338,53,261.51,112.67,196a77.84,77.84,0,0,1,6-6,10.52,10.52,0,0,1,14.91.48c3.89,4.17,3.9,10.2-.27,14.59-5.46,5.74-11.41,11-16.62,17C62.51,283.92,41.8,355.71,56.65,436.49c16,87.13,65.73,149.24,145.45,187.53C203.17,624.53,204.21,625.1,205.26,625.64Z" transform="translate(-11.59 -109.14)"/><path d="M410.42,146.62a187.72,187.72,0,0,1,36.11,17.22c76.56,47.61,118.57,116.8,126.56,206.22,6.22,69.54-13.57,131.83-56.31,186.88a245.51,245.51,0,0,1-20.84,23.48c-4.44,4.42-9.64,5.05-14.17,2-5.93-4-6.33-11.49-.61-16.95a271.11,271.11,0,0,0,33-37.21c27.62-38.16,42.93-80.85,46.5-127.68,7.67-100.52-43.18-195.26-130.7-244C423.57,153,416.93,149.92,410.42,146.62Z" transform="translate(-11.59 -109.14)"/><path d="M295.32,620.52c-37.43-1.46-73-9.86-105.68-28.24C118.91,552.5,78.17,491.66,66.25,411.86c-6.83-45.66,1.13-89.65,20.14-131.65,3-6.52,8.22-9,13.54-6.5s6.79,8.25,3.59,14.57c-17.51,34.59-26,71.27-24.29,110,2.84,64.79,28.86,119.1,76.37,162.84C190,592.79,231.12,611.06,277.31,618,283.34,618.87,289.52,618.8,295.32,620.52Z" transform="translate(-11.59 -109.14)"/><path d="M320.41,150.78c20.26.86,40,3.49,58.92,9.75,91.19,30.18,146.17,93.2,165.83,186.63,10.45,49.66,3,97.83-17.88,144-1.86,4.1-4.41,7.17-9.22,7.39-7.71.37-12.08-7.46-8.26-15a229.63,229.63,0,0,0,16.53-42.07c26.74-95.86-13.6-200.15-98.15-254.06a225.52,225.52,0,0,0-103.82-35.24C323.1,152.06,321.64,152.4,320.41,150.78Z" transform="translate(-11.59 -109.14)"/><path d="M365.21,589.15a183.92,183.92,0,0,1-33.5,7.52C218.39,612.61,119.52,536.18,94.22,437.49a227.29,227.29,0,0,1-6.35-73.43c.29-4,1.73-7.22,5.71-8.84A8,8,0,0,1,102,356.6c3.07,2.41,3.5,5.7,3,9.31-3.19,24.76-2.18,49.44,4.44,73.44,20.8,75.47,69.25,124.77,143.7,148.12,35.32,11.08,71.31,10.86,107.23,2C361.66,589.16,362.89,588.38,365.21,589.15Z" transform="translate(-11.59 -109.14)"/><path d="M249.18,182.75c12.52-4.86,25.53-7.47,38.76-8.9,113.42-12.26,218.45,68.43,235.88,181.09a212.87,212.87,0,0,1,1.89,51.43c-.6,6.84-4,10.72-9.2,10.35-5.61-.39-8.7-4.94-7.85-11.78,3.44-27.54,1.86-54.85-6.79-81.19-25.76-78.43-79.53-126.48-159.94-144.35-30.29-6.72-60.66-4.74-90.68,2.87Z" transform="translate(-11.59 -109.14)"/><path d="M196.68,230c24.29-17.73,50.69-29.68,79.95-34.45,83.05-13.53,161,23.37,203.37,95.86,8.29,14.17,13.88,29.43,18.46,45.11,1.66,5.68-.31,9.67-5.21,11-4.65,1.22-8.35-1.54-9.73-7.39-5.45-23.12-14.58-44.63-28.62-63.83-33.6-46-79-71.69-135.53-77.31-43.4-4.33-83.36,6.22-119.74,30.3C199,229.67,198.35,230.53,196.68,230Z" transform="translate(-11.59 -109.14)"/><path d="M417.79,540.7A197.73,197.73,0,0,1,349,573.29C261.17,596,151.86,549.44,117.94,444c-1-3.13-2-6.26-2.91-9.42-1.52-5.39.76-9.8,5.52-10.91,4.14-1,8.07,1.9,9.29,7,5.68,23.52,14.71,45.68,29.31,65,44.1,58.35,103.07,83.47,175.59,76.09,29.35-3,56.16-13.93,80.58-30.55A2,2,0,0,1,417.79,540.7Z" transform="translate(-11.59 -109.14)"/><path d="M171.39,281.55a141.19,141.19,0,0,1,30.42-33.27c68.58-55,176-50.9,239.93,21.59,4.05,4.59,7.83,9.44,11.49,14.35s3.25,9.26-.51,11.76-7.53,1.09-10.81-3.75c-27.71-40.88-65.8-65.81-114.82-72.19-61.81-8-113.29,12.16-153.95,59.57C172.58,280.27,172,280.9,171.39,281.55Z" transform="translate(-11.59 -109.14)"/><path d="M446.61,485c-1.21,1.77-2.36,3.57-3.64,5.29C375.22,582,242.44,582.17,171.88,501.45c-4.22-4.83-8.22-9.89-12-15.05-3.19-4.31-2.62-8.68.94-11s7.6-1.17,10.6,3.26c25.35,37.54,59.63,62.49,104.39,70.83,68.3,12.73,124.6-8.47,168.35-62.61L446,484.6Z" transform="translate(-11.59 -109.14)"/><path d="M455.71,423.8a137.72,137.72,0,0,1-18.36,46.48c-45.72,73.4-142,95.87-216.46,50.54-2.56-1.55-5.11-3.12-7.55-4.85-4-2.84-4.78-6.33-2.36-9.55,2.19-2.93,5.86-3.34,9.55-.67a161.62,161.62,0,0,0,33.08,18.79c80.18,33.18,173.8-10.82,199.93-94C454.25,428.32,455,426.06,455.71,423.8Z" transform="translate(-11.59 -109.14)"/><path d="M159.92,340.62c3.79-15.91,10-31,19.45-44.31,33.39-47.08,79.26-70.1,136.89-69,29.58.56,56.65,9.91,81.31,26.24,1.74,1.15,3.59,2.18,4.87,3.91,1.8,2.41,2.21,4.92.22,7.4s-4.64,3.32-7.58,1.93a33.43,33.43,0,0,1-4.87-3.19c-79.83-57.57-195.48-21.31-228.33,71.6C161.24,337,160.57,338.8,159.92,340.62Z" transform="translate(-11.59 -109.14)"/><path d="M168.47,400.45c-3.14-26.73.43-52.17,11.78-76.29,28.93-61.47,95.81-93.72,162-78.33a28.26,28.26,0,0,1,4.74,1.35c2.89,1.24,4.71,3.3,3.72,6.68s-3.62,4.66-7,3.93c-4.52-1-9-2.28-13.5-3.28-71-15.77-144.31,34-158.45,104.38a141.28,141.28,0,0,0-2.68,38.8C169.12,398.5,169.45,399.41,168.47,400.45Z" transform="translate(-11.59 -109.14)"/><path d="M445.52,373.39c2.8,34-3.75,65.18-23.14,92.88C392,509.66,350,530.53,297.1,529.2a128.91,128.91,0,0,1-27.44-4.12c-5.4-1.33-7.87-4-6.87-7.56,1.06-3.78,4.19-4.92,9.58-3.39,65.06,18.51,118.73-12.22,147-51.08C438,437.34,446,408.23,444.79,376.54c0-.74,0-1.48,0-2.22C444.79,374.22,444.94,374.12,445.52,373.39Z" transform="translate(-11.59 -109.14)"/><path d="M419.78,333.57c5,7.47,7.21,15.92,9.5,24.35,18.85,69.47-30.2,147.52-108.52,156.89-1.64.19-3.28.34-4.92.37-3.09,0-5.32-1.31-5.6-4.55-.3-3.5,1.84-5.28,5.11-5.52A141.19,141.19,0,0,0,334,502.65c78-16.43,114.73-100.28,87.64-164.24C421,336.82,420.4,335.19,419.78,333.57Z" transform="translate(-11.59 -109.14)"/><path d="M193.11,437.71c-6.29-11.79-9.66-24.08-11.34-36.83-9.4-71.27,39.73-135.06,111.08-144.35,1.48-.2,3-.32,4.47-.39,3.29-.16,5.79,1.22,6,4.6.25,3.61-2.12,5.41-5.63,5.56a94.63,94.63,0,0,0-17.77,2.24c-45.81,10.89-76.3,38.68-91.06,83.4-9.07,27.5-7.69,54.73,3.24,81.53C192.61,434.65,193.53,435.78,193.11,437.71Z" transform="translate(-11.59 -109.14)"/><path d="M391.2,310.75a117.83,117.83,0,0,1,27.36,51.86c12.3,50.76-15.37,107.46-62.81,129.24-3.11,1.43-6.06,1.78-7.61-1.73s.93-5.34,3.95-6.73c27-12.42,47.29-31.63,57.4-59.83C423.7,383.93,419,346.8,392,313.47a16.52,16.52,0,0,1-1-1.47C390.94,311.92,391,311.75,391.2,310.75Z" transform="translate(-11.59 -109.14)"/><path d="M221.41,459.41c-1.59-1.86-3.24-3.67-4.76-5.6-44.81-57-25.31-141.91,39.9-173.7a16.85,16.85,0,0,1,4.19-1.52,4.13,4.13,0,0,1,4.71,2.6,3.8,3.8,0,0,1-1.37,5.13,25.46,25.46,0,0,1-4.69,2.59c-65.32,29.13-81.91,115-40,166.23,1,1.19,1.82,2.5,2.73,3.76Z" transform="translate(-11.59 -109.14)"/><path d="M353.51,296c2.27.2,3.74,1.56,5.34,2.49a103.11,103.11,0,0,1,22.84,161.07,18,18,0,0,1-3.06,2.58c-1.6,1.07-3.14.65-4.48-.6s-2-3.14-.83-4.85a27,27,0,0,1,3.58-4c46.31-45.94,33.65-123.55-20.19-154.18C355.64,297.86,354.3,297.54,353.51,296Z" transform="translate(-11.59 -109.14)"/><path d="M257.65,473.7c-3.1-.22-4.69-1.66-6.37-2.7-56.35-35.15-63.77-113.38-19.83-158.74a20.25,20.25,0,0,1,3.38-2.9,3.45,3.45,0,0,1,4.84.68,3.67,3.67,0,0,1,.18,5.26,35.52,35.52,0,0,1-2.46,2.61,98.55,98.55,0,0,0,17,153.57C255.19,472,256,472.61,257.65,473.7Z" transform="translate(-11.59 -109.14)"/><path d="M317.36,295.61c11.13.11,21.43,3.41,31.33,8.1,44.42,21.07,64.7,77.1,44.08,121.68-1.09,2.36-2.31,5-5.57,3.65-3.55-1.47-2.41-4.2-1.21-6.78,20.32-43.64,3.75-81.14-20.23-104.25-11.85-11.42-26.28-18-42.33-21.11C321.4,296.5,319.38,296,317.36,295.61Z" transform="translate(-11.59 -109.14)"/><path d="M296.51,475.8c-14.87-.55-28.5-5.43-41-13.51a93.36,93.36,0,0,1-35.36-114.86c.12-.28.18-.58.32-.84,1.27-2.49,2.27-5.85,6-4.19s2,4.65.79,7.22c-23.53,50.46,3.56,109.15,57,123.44C288.33,474.14,292.44,474.89,296.51,475.8Z" transform="translate(-11.59 -109.14)"/><path d="M322.94,465.8c-7.81,3-16,2.85-24.05,2.24-44.29-3.32-78.47-41.39-77.25-85.8.05-1.79.18-3.59.37-5.37a3.14,3.14,0,0,1,3.61-3.13c2.14.15,3.07,1.66,3.1,3.7a21,21,0,0,1-.27,2.22,79.6,79.6,0,0,0,83.39,87C315.55,466.51,319.24,466.1,322.94,465.8Z" transform="translate(-11.59 -109.14)"/><path d="M291.26,305.5c13.09-3.68,26.22-3,39.22.58a83.93,83.93,0,0,1,61.39,84.23c0,1.05-.13,2.09-.2,3.13-.15,2.34-1,4.33-3.65,4.13-2.9-.21-3.4-2.41-3.14-4.93,2.62-24.88-4.77-46.48-22.33-64.13-19-19.12-42.21-26.87-69.07-23A16.44,16.44,0,0,1,291.26,305.5Z" transform="translate(-11.59 -109.14)"/><path d="M341.13,451.44a69.5,69.5,0,0,1-27.35,8.67c-35.71,3.91-69.45-17.93-80.29-51.92-.81-2.55-3.31-6.35,1.13-7.52,4.1-1.08,3.82,3.33,4.5,5.78,11.4,40.89,58.08,63.15,97.05,46.22C337.45,452.11,338.66,451.1,341.13,451.44Z" transform="translate(-11.59 -109.14)"/><path d="M271.51,320.64c5.61-3.79,11.58-5.83,17.7-7.41A75.72,75.72,0,0,1,380,362.79c.28.85.57,1.7.8,2.57.63,2.3,1,4.85-2,5.52-2.7.62-3.39-1.83-3.92-3.9a70.74,70.74,0,0,0-18.87-33.09,71.93,71.93,0,0,0-80.85-14.18C274.2,320.18,273.31,321.22,271.51,320.64Z" transform="translate(-11.59 -109.14)"/><path d="M357.58,427.79c-24.8,34.89-82.75,33.66-107-1.9-1.16-1.69-2.93-3.61-.31-5.35s3.79.73,4.91,2.35c9.67,13.9,22.63,23,39.31,26.13,24.18,4.58,45-1.7,61.82-20C356.73,428.55,357.17,428.18,357.58,427.79Z" transform="translate(-11.59 -109.14)"/><path d="M262.94,336.42c12.74-13,28.41-18.89,46.44-18.46,21.51.51,39,9.26,52.4,26a35.08,35.08,0,0,1,2.09,2.91c.91,1.42,1.05,2.83-.53,3.91s-2.83.4-3.91-.85c-.58-.67-1.09-1.42-1.62-2.14-22.09-30.25-62.6-36-92.45-13.08C264.58,335.34,263.74,335.86,262.94,336.42Z" transform="translate(-11.59 -109.14)"/><path d="M361.42,408.69c-2.06,7.88-6.53,14.43-12.16,20.24-19.4,20-51.82,24.08-75.48,9.35-2-1.22-6.15-2.23-4-5.6s4.48.19,6.33,1.4a58,58,0,0,0,83.66-22.25C360.3,410.77,360.87,409.74,361.42,408.69Z" transform="translate(-11.59 -109.14)"/><path d="M253.37,359.73a52.44,52.44,0,0,1,25.82-28.31c20.52-10.34,40.81-10,60.73,1.75a24.3,24.3,0,0,1,3.31,2.28c1,.79,1.68,1.82.84,3.11a2.38,2.38,0,0,1-3.47.9c-.78-.44-1.5-1-2.24-1.49-29-19.26-65.76-10.72-83.38,19.35C254.49,358.15,253.91,358.93,253.37,359.73Z" transform="translate(-11.59 -109.14)"/><path d="M360,388.19c1.17,24.08-19.89,48.68-44,52.38a63.4,63.4,0,0,1-22.28-.54c-1.77-.36-4.5-.44-3.82-3.2s3.07-1.5,4.88-1.08C325,442.86,352.93,425,359.13,394.7,359.57,392.56,359.72,390.36,360,388.19Z" transform="translate(-11.59 -109.14)"/><path d="M253.41,383.34c-.7-10.12,2.44-19.3,7.8-27.79a55.22,55.22,0,0,1,57.87-24.46,22,22,0,0,1,3,.86c1.26.46,2.05,1.33,1.57,2.75a2.22,2.22,0,0,1-2.88,1.45c-3.08-.6-6.13-1.38-9.23-1.8-27.43-3.74-54.16,17.07-57.41,44.63C254,380.44,253.66,381.88,253.41,383.34Z" transform="translate(-11.59 -109.14)"/><path d="M352.53,370.48c4.93,12.44,4.26,24.86-1.39,36.79C343.4,423.6,330.26,433,312.37,435.7c-1.56.23-3.67.78-4-1.5s1.86-2.45,3.39-2.52c26.06-1.08,49.86-28.9,40.73-60.35A2.31,2.31,0,0,1,352.53,370.48Z" transform="translate(-11.59 -109.14)"/><path d="M260.41,398c-3.51-7.95-3.25-16.37-1.25-24.73A49.52,49.52,0,0,1,300,335.79a25.08,25.08,0,0,1,3.12-.26,2,2,0,0,1,2.24,1.73c.18,1.31-.83,1.95-1.85,2.15-2.2.43-4.46.5-6.65,1-26.16,5.48-42.13,30.06-36.6,56.28C260.35,397.08,260.36,397.52,260.41,398Z" transform="translate(-11.59 -109.14)"/><path d="M342.39,361.25c16.43,20.26,8.29,53.87-15.28,64.9-1.41.66-3.23,2.05-4.2-.19-.82-1.9,1.25-2.47,2.53-3,20.28-8.78,31.81-36.64,17.9-59.84C343,362.51,342.71,361.87,342.39,361.25Z" transform="translate(-11.59 -109.14)"/><path d="M270.12,410a43,43,0,0,1-6.67-34.7c3-13.61,10.9-23.7,23.32-30.16,1.31-.68,2.91-1.68,3.85.23.84,1.7-.88,2.31-2,2.84-22.48,10.2-31.68,38.65-18.27,60.42C270.42,408.75,270.25,409.11,270.12,410Z" transform="translate(-11.59 -109.14)"/><path d="M280.08,414.07c-13-9.34-17.34-30.83-9.73-46.31a41.08,41.08,0,0,1,6.79-10c.93-1,2-2.82,3.62-1.15,1.37,1.46-.44,2.4-1.27,3.26-8.09,8.51-11.79,18.58-10.63,30.29A39.14,39.14,0,0,0,280.08,414.07Z" transform="translate(-11.59 -109.14)"/><path d="M336.23,359.46c14.27,13.87,14.17,40.81.06,54.3-.9.86-1.8,2.45-3.3,1.12-1.28-1.14-.2-2.23.65-3,14.14-13.2,14.94-36,2.59-51.38C336.17,360.4,336.23,360.22,336.23,359.46Z" transform="translate(-11.59 -109.14)"/><path d="M293.26,418.21c-12.24-4-21.65-16.6-22.73-29.32A35.71,35.71,0,0,1,273.3,371c.44-1,.8-2.58,2.46-1.82,1.32.6.63,1.67.3,2.68C269.17,392.73,273.5,404.92,293.26,418.21Z" transform="translate(-11.59 -109.14)"/><path d="M324.59,355.52a32.61,32.61,0,0,1,17.2,20.78,35.07,35.07,0,0,1-1.45,24c-.4,1-.73,2.65-2.37,2s-.83-1.9-.31-3c7.45-15.62,1.22-34.29-12.38-43A3.45,3.45,0,0,1,324.59,355.52Z" transform="translate(-11.59 -109.14)"/></svg>