<?xml version="1.0" standalone="no"?>
<!DOCTYPE svg PUBLIC "-//W3C//DTD SVG 20010904//EN"
 "http://www.w3.org/TR/2001/REC-SVG-20010904/DTD/svg10.dtd">
<svg version="1.0" xmlns="http://www.w3.org/2000/svg"
 width="256.000000pt" height="256.000000pt" viewBox="0 0 256.000000 256.000000"
 preserveAspectRatio="xMidYMid meet">

<g transform="translate(0.000000,256.000000) scale(0.100000,-0.100000)"
fill="#000000" stroke="none">
<path d="M790 2285 c-195 -44 -360 -205 -405 -396 -44 -188 8 -372 145 -509
258 -258 696 -186 857 141 41 83 53 135 53 239 0 104 -12 156 -53 239 -106
217 -362 339 -597 286z m130 -324 l5 -52 40 40 c39 41 65 52 65 28 0 -7 -18
-31 -41 -52 l-40 -40 63 -5 c47 -4 63 -9 63 -20 0 -11 -16 -16 -63 -20 l-63
-5 40 -40 c41 -39 52 -65 29 -65 -7 0 -32 19 -55 42 l-43 42 0 -102 0 -102 30
0 c23 0 30 -4 30 -20 0 -15 -7 -20 -29 -20 -25 0 -30 -4 -33 -27 -2 -17 -9
-28 -18 -28 -9 0 -16 11 -18 28 -3 23 -8 27 -33 27 -22 0 -29 5 -29 20 0 16 7
20 30 20 l30 0 0 102 0 102 -43 -42 c-23 -23 -48 -42 -55 -42 -23 0 -12 26 29
65 l40 40 -63 5 c-47 4 -63 9 -63 20 0 11 16 16 63 20 l63 5 -40 40 c-41 39
-52 65 -29 65 7 0 32 -19 55 -42 l43 -42 0 50 c0 28 3 54 7 58 16 16 28 -4 33
-53z"/>
<path d="M2080 775 l0 -405 215 0 215 0 0 405 0 405 -215 0 -215 0 0 -405z
m248 -157 c28 -28 7 -78 -33 -78 -27 0 -45 18 -45 45 0 27 18 45 45 45 12 0
26 -5 33 -12z"/>
<path d="M1482 1054 c-29 -7 -85 -31 -125 -51 l-72 -38 -322 -5 -323 -5 -27
-28 c-22 -22 -28 -37 -28 -72 0 -37 6 -50 33 -77 l32 -33 331 -5 c278 -4 331
-7 339 -20 13 -21 12 -33 -4 -56 -14 -18 -31 -19 -335 -22 l-320 -3 -69 35
c-84 42 -379 136 -429 136 -28 0 -44 -8 -74 -39 -32 -32 -39 -46 -39 -78 0
-25 9 -53 23 -74 20 -30 50 -45 272 -136 445 -182 545 -208 820 -208 198 0
287 13 453 66 112 36 199 75 292 129 l70 41 0 279 0 280 -222 -1 c-159 0 -238
-4 -276 -15z"/>
</g>
</svg>
